<svg width="42" height="42" fill="none" xmlns="http://www.w3.org/2000/svg"><path fill-rule="evenodd" clip-rule="evenodd" d="M30.665 12.943v2.683c3.014.941 5.21 3.67 5.21 6.929v8.64c0 4.034-3.345 7.305-7.469 7.305h-14.81c-4.126 0-7.471-3.271-7.471-7.306v-8.64c0-3.258 2.198-5.987 5.21-6.928v-2.683c.018-5.217 4.34-9.443 9.638-9.443 5.37 0 9.692 4.226 9.692 9.443zm-9.656-6.4c3.61 0 6.544 2.87 6.544 6.4v2.306H14.447v-2.34c.018-3.514 2.952-6.366 6.562-6.366zm1.547 22.253c0 .852-.694 1.53-1.565 1.53a1.535 1.535 0 01-1.547-1.53v-3.86c0-.835.694-1.514 1.547-1.514.871 0 1.565.679 1.565 1.514v3.86z" fill="#16AD9B"/></svg>