<svg width="42" height="42" fill="none" xmlns="http://www.w3.org/2000/svg"><path fill-rule="evenodd" clip-rule="evenodd" d="M32.737 15.394c0 2.197.581 3.493 1.86 4.986.968 1.1 1.278 2.511 1.278 4.043 0 1.53-.503 2.982-1.51 4.161-1.318 1.414-3.177 2.316-5.075 2.473-2.75.235-5.501.432-8.29.432-2.789 0-5.539-.118-8.288-.432a7.931 7.931 0 01-5.076-2.473c-1.007-1.179-1.511-2.631-1.511-4.161 0-1.532.311-2.943 1.278-4.043 1.319-1.493 1.861-2.788 1.861-4.986v-.746c0-2.943.734-4.868 2.246-6.752C13.757 5.148 17.359 3.5 20.923 3.5h.156c3.64 0 7.359 1.727 9.568 4.593 1.433 1.846 2.09 3.69 2.09 6.555v.746zM15.88 35.106c0-.88.809-1.284 1.557-1.457.874-.185 6.205-.185 7.08 0 .748.173 1.557.576 1.557 1.457-.044.84-.536 1.583-1.216 2.056a6.36 6.36 0 01-2.998 1.28 6.64 6.64 0 01-1.764 0 6.33 6.33 0 01-2.999-1.282c-.681-.47-1.174-1.215-1.217-2.053z" fill="#9024E4"/></svg>