<svg width="26" height="27" fill="none" xmlns="http://www.w3.org/2000/svg"><path clip-rule="evenodd" d="M23.998 8.014l-.817-1.418a2.51 2.51 0 00-3.423-.924v0a2.498 2.498 0 01-3.422-.889 2.402 2.402 0 01-.337-1.201v0A2.51 2.51 0 0013.49 1h-1.645a2.498 2.498 0 00-2.498 2.51v0a2.51 2.51 0 01-2.51 2.474 2.402 2.402 0 01-1.201-.336v0a2.51 2.51 0 00-3.423.924l-.876 1.442a2.51 2.51 0 00.912 3.422v0a2.51 2.51 0 010 4.348v0a2.498 2.498 0 00-.912 3.41v0l.828 1.43a2.51 2.51 0 003.423.972v0a2.486 2.486 0 013.41.913c.217.364.333.778.337 1.201v0a2.51 2.51 0 002.51 2.51h1.645A2.51 2.51 0 0016 23.722v0a2.498 2.498 0 012.51-2.51c.422.011.835.127 1.201.336v0a2.51 2.51 0 003.423-.912v0l.865-1.442a2.498 2.498 0 00-.913-3.422v0a2.498 2.498 0 01-.913-3.423c.218-.38.533-.695.913-.913v0a2.51 2.51 0 00.913-3.41v0-.012z" stroke="#4F80E1" stroke-width="1.5" stroke-linecap="round" stroke-linejoin="round"/><circle cx="12.673" cy="13.61" r="3.459" stroke="#4F80E1" stroke-width="1.5" stroke-linecap="round" stroke-linejoin="round"/></svg>