<svg width="26" height="26" fill="none" xmlns="http://www.w3.org/2000/svg"><path clip-rule="evenodd" d="M18.765 21.455a3.565 3.565 0 003.566-3.566v-2.837a2.35 2.35 0 01-2.354-2.353 2.35 2.35 0 012.354-2.353l-.003-2.84a3.564 3.564 0 00-3.564-3.566H6.457A3.565 3.565 0 002.89 7.506v2.932c1.301 0 2.352.958 2.352 2.261a2.35 2.35 0 01-2.353 2.353v2.837a3.565 3.565 0 003.565 3.566h12.31z" stroke="#fff" stroke-width="1.5" stroke-linecap="round" stroke-linejoin="round"/><path clip-rule="evenodd" d="M12.61 14.559l1.828.961a.234.234 0 00.34-.246l-.35-2.037 1.48-1.441a.233.233 0 00-.129-.398l-2.045-.298-.915-1.853a.233.233 0 00-.418 0l-.916 1.853-2.043.298a.233.233 0 00-.13.398l1.48 1.44-.35 2.038a.234.234 0 00.34.246l1.828-.961z" stroke="#fff" stroke-width="1.5" stroke-linecap="round" stroke-linejoin="round"/></svg>