<svg width="42" height="42" fill="none" xmlns="http://www.w3.org/2000/svg"><path fill-rule="evenodd" clip-rule="evenodd" d="M31.096 14.668H38.5c0-5.945-3.562-9.418-9.598-9.418H13.098C7.062 5.25 3.5 8.723 3.5 14.592v12.816c0 5.869 3.562 9.342 9.598 9.342h15.804c6.036 0 9.598-3.473 9.598-9.342v-.546h-7.404c-3.437 0-6.223-2.716-6.223-6.067 0-3.35 2.786-6.066 6.223-6.066v-.06zm0 2.609h6.097c.722 0 1.307.57 1.307 1.274v4.428c-.008.7-.589 1.266-1.307 1.274h-5.957c-1.74.023-3.261-1.138-3.656-2.79a3.469 3.469 0 01.758-2.892 3.66 3.66 0 012.758-1.294zm.264 4.656h.576c.738 0 1.337-.584 1.337-1.305 0-.72-.599-1.304-1.338-1.304h-.575a1.34 1.34 0 00-.945.372 1.273 1.273 0 00-.393.917c0 .723.597 1.311 1.338 1.32zm-19.569-7.265h9.878c.739 0 1.338-.584 1.338-1.304 0-.72-.6-1.304-1.338-1.304H11.79c-.733 0-1.33.574-1.338 1.289 0 .723.597 1.31 1.338 1.32z" fill="#157605"/></svg>